<?xml version="1.0" standalone="no"?>
<!DOCTYPE svg PUBLIC "-//W3C//DTD SVG 1.1//EN" "http://www.w3.org/Graphics/SVG/1.1/DTD/svg11.dtd">
<svg version="1.1" width="1200" height="438" onload="init(evt)" viewBox="0 0 1200 438" xmlns="http://www.w3.org/2000/svg" xmlns:xlink="http://www.w3.org/1999/xlink">
<!-- Flame graph stack visualization. See https://github.com/brendangregg/FlameGraph for latest version, and http://www.brendangregg.com/flamegraphs.html for examples. -->
<!-- NOTES:  -->
<defs>
	<linearGradient id="background" y1="0" y2="1" x1="0" x2="0" >
		<stop stop-color="#eeeeee" offset="5%" />
		<stop stop-color="#eeeeb0" offset="95%" />
	</linearGradient>
</defs>
<style type="text/css">
	text { font-family:Verdana; font-size:12px; fill:rgb(0,0,0); }
	#search, #ignorecase { opacity:0.1; cursor:pointer; }
	#search:hover, #search.show, #ignorecase:hover, #ignorecase.show { opacity:1; }
	#subtitle { text-anchor:middle; font-color:rgb(160,160,160); }
	#title { text-anchor:middle; font-size:17px}
	#unzoom { cursor:pointer; }
	#frames > *:hover { stroke:black; stroke-width:0.5; cursor:pointer; }
	.hide { display:none; }
	.parent { opacity:0.5; }
</style>
<script type="text/ecmascript">
<![CDATA[
	"use strict";
	var details, searchbtn, unzoombtn, matchedtxt, svg, searching, currentSearchTerm, ignorecase, ignorecaseBtn;
	function init(evt) {
		details = document.getElementById("details").firstChild;
		searchbtn = document.getElementById("search");
		ignorecaseBtn = document.getElementById("ignorecase");
		unzoombtn = document.getElementById("unzoom");
		matchedtxt = document.getElementById("matched");
		svg = document.getElementsByTagName("svg")[0];
		searching = 0;
		currentSearchTerm = null;

		// use GET parameters to restore a flamegraphs state.
		var params = get_params();
		if (params.x && params.y)
			zoom(find_group(document.querySelector('[x="' + params.x + '"][y="' + params.y + '"]')));
                if (params.s) search(params.s);
	}

	// event listeners
	window.addEventListener("click", function(e) {
		var target = find_group(e.target);
		if (target) {
			if (target.nodeName == "a") {
				if (e.ctrlKey === false) return;
				e.preventDefault();
			}
			if (target.classList.contains("parent")) unzoom();
			zoom(target);
			if (!document.querySelector('.parent')) {
				clearzoom();
				return;
			}

			// set parameters for zoom state
			var el = target.querySelector("rect");
			if (el && el.attributes && el.attributes.y && el.attributes._orig_x) {
				var params = get_params()
				params.x = el.attributes._orig_x.value;
				params.y = el.attributes.y.value;
				history.replaceState(null, null, parse_params(params));
			}
		}
		else if (e.target.id == "unzoom") clearzoom();
		else if (e.target.id == "search") search_prompt();
		else if (e.target.id == "ignorecase") toggle_ignorecase();
	}, false)

	// mouse-over for info
	// show
	window.addEventListener("mouseover", function(e) {
		var target = find_group(e.target);
		if (target) details.nodeValue = "Function: " + g_to_text(target);
	}, false)

	// clear
	window.addEventListener("mouseout", function(e) {
		var target = find_group(e.target);
		if (target) details.nodeValue = ' ';
	}, false)

	// ctrl-F for search
	// ctrl-I to toggle case-sensitive search
	window.addEventListener("keydown",function (e) {
		if (e.keyCode === 114 || (e.ctrlKey && e.keyCode === 70)) {
			e.preventDefault();
			search_prompt();
		}
		else if (e.ctrlKey && e.keyCode === 73) {
			e.preventDefault();
			toggle_ignorecase();
		}
	}, false)

	// functions
	function get_params() {
		var params = {};
		var paramsarr = window.location.search.substr(1).split('&');
		for (var i = 0; i < paramsarr.length; ++i) {
			var tmp = paramsarr[i].split("=");
			if (!tmp[0] || !tmp[1]) continue;
			params[tmp[0]]  = decodeURIComponent(tmp[1]);
		}
		return params;
	}
	function parse_params(params) {
		var uri = "?";
		for (var key in params) {
			uri += key + '=' + encodeURIComponent(params[key]) + '&';
		}
		if (uri.slice(-1) == "&")
			uri = uri.substring(0, uri.length - 1);
		if (uri == '?')
			uri = window.location.href.split('?')[0];
		return uri;
	}
	function find_child(node, selector) {
		var children = node.querySelectorAll(selector);
		if (children.length) return children[0];
	}
	function find_group(node) {
		var parent = node.parentElement;
		if (!parent) return;
		if (parent.id == "frames") return node;
		return find_group(parent);
	}
	function orig_save(e, attr, val) {
		if (e.attributes["_orig_" + attr] != undefined) return;
		if (e.attributes[attr] == undefined) return;
		if (val == undefined) val = e.attributes[attr].value;
		e.setAttribute("_orig_" + attr, val);
	}
	function orig_load(e, attr) {
		if (e.attributes["_orig_"+attr] == undefined) return;
		e.attributes[attr].value = e.attributes["_orig_" + attr].value;
		e.removeAttribute("_orig_"+attr);
	}
	function g_to_text(e) {
		var text = find_child(e, "title").firstChild.nodeValue;
		return (text)
	}
	function g_to_func(e) {
		var func = g_to_text(e);
		// if there's any manipulation we want to do to the function
		// name before it's searched, do it here before returning.
		return (func);
	}
	function update_text(e) {
		var r = find_child(e, "rect");
		var t = find_child(e, "text");
		var w = parseFloat(r.attributes.width.value) -3;
		var txt = find_child(e, "title").textContent.replace(/\([^(]*\)$/,"");
		t.attributes.x.value = parseFloat(r.attributes.x.value) + 3;

		// Smaller than this size won't fit anything
		if (w < 2 * 12 * 0.59) {
			t.textContent = "";
			return;
		}

		t.textContent = txt;
		// Fit in full text width
		if (/^ *$/.test(txt) || t.getSubStringLength(0, txt.length) < w)
			return;

		for (var x = txt.length - 2; x > 0; x--) {
			if (t.getSubStringLength(0, x + 2) <= w) {
				t.textContent = txt.substring(0, x) + "..";
				return;
			}
		}
		t.textContent = "";
	}

	// zoom
	function zoom_reset(e) {
		if (e.attributes != undefined) {
			orig_load(e, "x");
			orig_load(e, "width");
		}
		if (e.childNodes == undefined) return;
		for (var i = 0, c = e.childNodes; i < c.length; i++) {
			zoom_reset(c[i]);
		}
	}
	function zoom_child(e, x, ratio) {
		if (e.attributes != undefined) {
			if (e.attributes.x != undefined) {
				orig_save(e, "x");
				e.attributes.x.value = (parseFloat(e.attributes.x.value) - x - 10) * ratio + 10;
				if (e.tagName == "text")
					e.attributes.x.value = find_child(e.parentNode, "rect[x]").attributes.x.value + 3;
			}
			if (e.attributes.width != undefined) {
				orig_save(e, "width");
				e.attributes.width.value = parseFloat(e.attributes.width.value) * ratio;
			}
		}

		if (e.childNodes == undefined) return;
		for (var i = 0, c = e.childNodes; i < c.length; i++) {
			zoom_child(c[i], x - 10, ratio);
		}
	}
	function zoom_parent(e) {
		if (e.attributes) {
			if (e.attributes.x != undefined) {
				orig_save(e, "x");
				e.attributes.x.value = 10;
			}
			if (e.attributes.width != undefined) {
				orig_save(e, "width");
				e.attributes.width.value = parseInt(svg.width.baseVal.value) - (10 * 2);
			}
		}
		if (e.childNodes == undefined) return;
		for (var i = 0, c = e.childNodes; i < c.length; i++) {
			zoom_parent(c[i]);
		}
	}
	function zoom(node) {
		var attr = find_child(node, "rect").attributes;
		var width = parseFloat(attr.width.value);
		var xmin = parseFloat(attr.x.value);
		var xmax = parseFloat(xmin + width);
		var ymin = parseFloat(attr.y.value);
		var ratio = (svg.width.baseVal.value - 2 * 10) / width;

		// XXX: Workaround for JavaScript float issues (fix me)
		var fudge = 0.0001;

		unzoombtn.classList.remove("hide");

		var el = document.getElementById("frames").children;
		for (var i = 0; i < el.length; i++) {
			var e = el[i];
			var a = find_child(e, "rect").attributes;
			var ex = parseFloat(a.x.value);
			var ew = parseFloat(a.width.value);
			var upstack;
			// Is it an ancestor
			if (0 == 0) {
				upstack = parseFloat(a.y.value) > ymin;
			} else {
				upstack = parseFloat(a.y.value) < ymin;
			}
			if (upstack) {
				// Direct ancestor
				if (ex <= xmin && (ex+ew+fudge) >= xmax) {
					e.classList.add("parent");
					zoom_parent(e);
					update_text(e);
				}
				// not in current path
				else
					e.classList.add("hide");
			}
			// Children maybe
			else {
				// no common path
				if (ex < xmin || ex + fudge >= xmax) {
					e.classList.add("hide");
				}
				else {
					zoom_child(e, xmin, ratio);
					update_text(e);
				}
			}
		}
		search();
	}
	function unzoom() {
		unzoombtn.classList.add("hide");
		var el = document.getElementById("frames").children;
		for(var i = 0; i < el.length; i++) {
			el[i].classList.remove("parent");
			el[i].classList.remove("hide");
			zoom_reset(el[i]);
			update_text(el[i]);
		}
		search();
	}
	function clearzoom() {
		unzoom();

		// remove zoom state
		var params = get_params();
		if (params.x) delete params.x;
		if (params.y) delete params.y;
		history.replaceState(null, null, parse_params(params));
	}

	// search
	function toggle_ignorecase() {
		ignorecase = !ignorecase;
		if (ignorecase) {
			ignorecaseBtn.classList.add("show");
		} else {
			ignorecaseBtn.classList.remove("show");
		}
		reset_search();
		search();
	}
	function reset_search() {
		var el = document.querySelectorAll("#frames rect");
		for (var i = 0; i < el.length; i++) {
			orig_load(el[i], "fill")
		}
		var params = get_params();
		delete params.s;
		history.replaceState(null, null, parse_params(params));
	}
	function search_prompt() {
		if (!searching) {
			var term = prompt("Enter a search term (regexp " +
			    "allowed, eg: ^ext4_)"
			    + (ignorecase ? ", ignoring case" : "")
			    + "\nPress Ctrl-i to toggle case sensitivity", "");
			if (term != null) search(term);
		} else {
			reset_search();
			searching = 0;
			currentSearchTerm = null;
			searchbtn.classList.remove("show");
			searchbtn.firstChild.nodeValue = "Search"
			matchedtxt.classList.add("hide");
			matchedtxt.firstChild.nodeValue = ""
		}
	}
	function search(term) {
		if (term) currentSearchTerm = term;

		var re = new RegExp(currentSearchTerm, ignorecase ? 'i' : '');
		var el = document.getElementById("frames").children;
		var matches = new Object();
		var maxwidth = 0;
		for (var i = 0; i < el.length; i++) {
			var e = el[i];
			var func = g_to_func(e);
			var rect = find_child(e, "rect");
			if (func == null || rect == null)
				continue;

			// Save max width. Only works as we have a root frame
			var w = parseFloat(rect.attributes.width.value);
			if (w > maxwidth)
				maxwidth = w;

			if (func.match(re)) {
				// highlight
				var x = parseFloat(rect.attributes.x.value);
				orig_save(rect, "fill");
				rect.attributes.fill.value = "rgb(230,0,230)";

				// remember matches
				if (matches[x] == undefined) {
					matches[x] = w;
				} else {
					if (w > matches[x]) {
						// overwrite with parent
						matches[x] = w;
					}
				}
				searching = 1;
			}
		}
		if (!searching)
			return;
		var params = get_params();
		params.s = currentSearchTerm;
		history.replaceState(null, null, parse_params(params));

		searchbtn.classList.add("show");
		searchbtn.firstChild.nodeValue = "Reset Search";

		// calculate percent matched, excluding vertical overlap
		var count = 0;
		var lastx = -1;
		var lastw = 0;
		var keys = Array();
		for (k in matches) {
			if (matches.hasOwnProperty(k))
				keys.push(k);
		}
		// sort the matched frames by their x location
		// ascending, then width descending
		keys.sort(function(a, b){
			return a - b;
		});
		// Step through frames saving only the biggest bottom-up frames
		// thanks to the sort order. This relies on the tree property
		// where children are always smaller than their parents.
		var fudge = 0.0001;	// JavaScript floating point
		for (var k in keys) {
			var x = parseFloat(keys[k]);
			var w = matches[keys[k]];
			if (x >= lastx + lastw - fudge) {
				count += w;
				lastx = x;
				lastw = w;
			}
		}
		// display matched percent
		matchedtxt.classList.remove("hide");
		var pct = 100 * count / maxwidth;
		if (pct != 100) pct = pct.toFixed(1)
		matchedtxt.firstChild.nodeValue = "Matched: " + pct + "%";
	}
]]>
</script>
<rect x="0.0" y="0" width="1200.0" height="438.0" fill="url(#background)"  />
<text id="title" x="600.00" y="24" >Flame Graph</text>
<text id="details" x="10.00" y="421" > </text>
<text id="unzoom" x="10.00" y="24" class="hide">Reset Zoom</text>
<text id="search" x="1090.00" y="24" >Search</text>
<text id="ignorecase" x="1174.00" y="24" >ic</text>
<text id="matched" x="1090.00" y="421" > </text>
<g id="frames">
<g >
<title>uk_9p_read (28 samples, 2.33%)</title><rect x="11.0" y="117" width="27.5" height="15.0" fill="rgb(236,136,25)" rx="2" ry="2" />
<text  x="13.98" y="127.5" >u..</text>
</g>
<g >
<title>valueToText (2 samples, 0.17%)</title><rect x="707.2" y="229" width="1.9" height="15.0" fill="rgb(254,229,24)" rx="2" ry="2" />
<text  x="710.18" y="239.5" ></text>
</g>
<g >
<title>pager_end_transaction (1 samples, 0.08%)</title><rect x="720.9" y="197" width="1.0" height="15.0" fill="rgb(217,206,17)" rx="2" ry="2" />
<text  x="723.95" y="207.5" ></text>
</g>
<g >
<title>memjrnlClose (1 samples, 0.08%)</title><rect x="720.9" y="181" width="1.0" height="15.0" fill="rgb(233,159,1)" rx="2" ry="2" />
<text  x="723.95" y="191.5" ></text>
</g>
<g >
<title>uk_syscall_e_writev (679 samples, 56.58%)</title><rect x="39.5" y="133" width="667.7" height="15.0" fill="rgb(226,156,44)" rx="2" ry="2" />
<text  x="42.50" y="143.5" >uk_syscall_e_writev</text>
</g>
<g >
<title>ukplat_cink (18 samples, 1.50%)</title><rect x="1172.3" y="149" width="17.7" height="15.0" fill="rgb(216,227,9)" rx="2" ry="2" />
<text  x="1175.30" y="159.5" ></text>
</g>
<g >
<title>memcpy (1 samples, 0.08%)</title><rect x="712.1" y="133" width="1.0" height="15.0" fill="rgb(224,25,29)" rx="2" ry="2" />
<text  x="715.10" y="143.5" ></text>
</g>
<g >
<title>shell_exec (695 samples, 57.92%)</title><rect x="39.5" y="277" width="683.4" height="15.0" fill="rgb(207,8,42)" rx="2" ry="2" />
<text  x="42.50" y="287.5" >shell_exec</text>
</g>
<g >
<title>sys_read (475 samples, 39.58%)</title><rect x="722.9" y="197" width="467.1" height="15.0" fill="rgb(205,21,42)" rx="2" ry="2" />
<text  x="725.92" y="207.5" >sys_read</text>
</g>
<g >
<title>sqlite_main (1,200 samples, 100.00%)</title><rect x="10.0" y="357" width="1180.0" height="15.0" fill="rgb(226,80,22)" rx="2" ry="2" />
<text  x="13.00" y="367.5" >sqlite_main</text>
</g>
<g >
<title>keywordCode.part.219 (1 samples, 0.08%)</title><rect x="710.1" y="197" width="1.0" height="15.0" fill="rgb(251,193,21)" rx="2" ry="2" />
<text  x="713.13" y="207.5" ></text>
</g>
<g >
<title>__srefill_r (1 samples, 0.08%)</title><rect x="10.0" y="277" width="1.0" height="15.0" fill="rgb(237,183,13)" rx="2" ry="2" />
<text  x="13.00" y="287.5" ></text>
</g>
<g >
<title>pager_write (6 samples, 0.50%)</title><rect x="713.1" y="197" width="5.9" height="15.0" fill="rgb(227,190,2)" rx="2" ry="2" />
<text  x="716.08" y="207.5" ></text>
</g>
<g >
<title>main_thread_func (1,200 samples, 100.00%)</title><rect x="10.0" y="373" width="1180.0" height="15.0" fill="rgb(253,169,53)" rx="2" ry="2" />
<text  x="13.00" y="383.5" >main_thread_func</text>
</g>
<g >
<title>sqlite3VdbeHalt (2 samples, 0.17%)</title><rect x="720.0" y="229" width="1.9" height="15.0" fill="rgb(244,115,8)" rx="2" ry="2" />
<text  x="722.97" y="239.5" ></text>
</g>
<g >
<title>_read_r (475 samples, 39.58%)</title><rect x="722.9" y="261" width="467.1" height="15.0" fill="rgb(254,87,4)" rx="2" ry="2" />
<text  x="725.92" y="271.5" >_read_r</text>
</g>
<g >
<title>_fgets_r (475 samples, 39.58%)</title><rect x="722.9" y="309" width="467.1" height="15.0" fill="rgb(215,44,48)" rx="2" ry="2" />
<text  x="725.92" y="319.5" >_fgets_r</text>
</g>
<g >
<title>stdio_write (679 samples, 56.58%)</title><rect x="39.5" y="85" width="667.7" height="15.0" fill="rgb(241,192,53)" rx="2" ry="2" />
<text  x="42.50" y="95.5" >stdio_write</text>
</g>
<g >
<title>sqlite3VdbeMemCast (1 samples, 0.08%)</title><rect x="721.9" y="229" width="1.0" height="15.0" fill="rgb(219,184,34)" rx="2" ry="2" />
<text  x="724.93" y="239.5" ></text>
</g>
<g >
<title>uk_syscall_e_read (475 samples, 39.58%)</title><rect x="722.9" y="245" width="467.1" height="15.0" fill="rgb(231,34,0)" rx="2" ry="2" />
<text  x="725.92" y="255.5" >uk_syscall_e_read</text>
</g>
<g >
<title>_fputs_r (679 samples, 56.58%)</title><rect x="39.5" y="229" width="667.7" height="15.0" fill="rgb(214,107,13)" rx="2" ry="2" />
<text  x="42.50" y="239.5" >_fputs_r</text>
</g>
<g >
<title>vfs_read (28 samples, 2.33%)</title><rect x="11.0" y="149" width="27.5" height="15.0" fill="rgb(234,36,54)" rx="2" ry="2" />
<text  x="13.98" y="159.5" >v..</text>
</g>
<g >
<title>sys_write (679 samples, 56.58%)</title><rect x="39.5" y="117" width="667.7" height="15.0" fill="rgb(243,62,30)" rx="2" ry="2" />
<text  x="42.50" y="127.5" >sys_write</text>
</g>
<g >
<title>sqlite3_str_appendf (2 samples, 0.17%)</title><rect x="707.2" y="197" width="1.9" height="15.0" fill="rgb(223,183,18)" rx="2" ry="2" />
<text  x="710.18" y="207.5" ></text>
</g>
<g >
<title>schedcoop_schedule (27 samples, 2.25%)</title><rect x="12.0" y="85" width="26.5" height="15.0" fill="rgb(235,162,54)" rx="2" ry="2" />
<text  x="14.97" y="95.5" >s..</text>
</g>
<g >
<title>hypercall_page (2 samples, 0.17%)</title><rect x="12.0" y="53" width="1.9" height="15.0" fill="rgb(233,55,4)" rx="2" ry="2" />
<text  x="14.97" y="63.5" ></text>
</g>
<g >
<title>__srefill_r (28 samples, 2.33%)</title><rect x="11.0" y="261" width="27.5" height="15.0" fill="rgb(222,58,22)" rx="2" ry="2" />
<text  x="13.98" y="271.5" >_..</text>
</g>
<g >
<title>process_input (1,200 samples, 100.00%)</title><rect x="10.0" y="341" width="1180.0" height="15.0" fill="rgb(208,192,0)" rx="2" ry="2" />
<text  x="13.00" y="351.5" >process_input</text>
</g>
<g >
<title>sqlite3BtreeInsert (8 samples, 0.67%)</title><rect x="712.1" y="229" width="7.9" height="15.0" fill="rgb(223,16,16)" rx="2" ry="2" />
<text  x="715.10" y="239.5" ></text>
</g>
<g >
<title>allocateBtreePage (1 samples, 0.08%)</title><rect x="712.1" y="197" width="1.0" height="15.0" fill="rgb(214,59,23)" rx="2" ry="2" />
<text  x="715.10" y="207.5" ></text>
</g>
<g >
<title>uk_9preq_waitreply (27 samples, 2.25%)</title><rect x="12.0" y="101" width="26.5" height="15.0" fill="rgb(224,189,16)" rx="2" ry="2" />
<text  x="14.97" y="111.5" >u..</text>
</g>
<g >
<title>memchr (1 samples, 0.08%)</title><rect x="38.5" y="277" width="1.0" height="15.0" fill="rgb(215,129,40)" rx="2" ry="2" />
<text  x="41.52" y="287.5" ></text>
</g>
<g >
<title>sqlite3_column_text (2 samples, 0.17%)</title><rect x="707.2" y="245" width="1.9" height="15.0" fill="rgb(227,82,29)" rx="2" ry="2" />
<text  x="710.18" y="255.5" ></text>
</g>
<g >
<title>process_input (725 samples, 60.42%)</title><rect x="10.0" y="309" width="712.9" height="15.0" fill="rgb(251,34,25)" rx="2" ry="2" />
<text  x="13.00" y="319.5" >process_input</text>
</g>
<g >
<title>__sflush_r (679 samples, 56.58%)</title><rect x="39.5" y="181" width="667.7" height="15.0" fill="rgb(220,95,2)" rx="2" ry="2" />
<text  x="42.50" y="191.5" >__sflush_r</text>
</g>
<g >
<title>balance (1 samples, 0.08%)</title><rect x="712.1" y="213" width="1.0" height="15.0" fill="rgb(221,1,2)" rx="2" ry="2" />
<text  x="715.10" y="223.5" ></text>
</g>
<g >
<title>shell_callback (679 samples, 56.58%)</title><rect x="39.5" y="245" width="667.7" height="15.0" fill="rgb(247,57,46)" rx="2" ry="2" />
<text  x="42.50" y="255.5" >shell_callback</text>
</g>
<g >
<title>__srefill_r (475 samples, 39.58%)</title><rect x="722.9" y="293" width="467.1" height="15.0" fill="rgb(251,116,28)" rx="2" ry="2" />
<text  x="725.92" y="303.5" >__srefill_r</text>
</g>
<g >
<title>uk_syscall_e_read (28 samples, 2.33%)</title><rect x="11.0" y="213" width="27.5" height="15.0" fill="rgb(238,105,25)" rx="2" ry="2" />
<text  x="13.98" y="223.5" >u..</text>
</g>
<g >
<title>uk_9pfs_read (28 samples, 2.33%)</title><rect x="11.0" y="133" width="27.5" height="15.0" fill="rgb(244,83,1)" rx="2" ry="2" />
<text  x="13.98" y="143.5" >u..</text>
</g>
<g >
<title>local_getline (475 samples, 39.58%)</title><rect x="722.9" y="325" width="467.1" height="15.0" fill="rgb(249,134,36)" rx="2" ry="2" />
<text  x="725.92" y="335.5" >local_getline</text>
</g>
<g >
<title>sqlite3_free (1 samples, 0.08%)</title><rect x="720.9" y="165" width="1.0" height="15.0" fill="rgb(206,105,16)" rx="2" ry="2" />
<text  x="723.95" y="175.5" ></text>
</g>
<g >
<title>memcpy (5 samples, 0.42%)</title><rect x="714.1" y="149" width="4.9" height="15.0" fill="rgb(232,42,36)" rx="2" ry="2" />
<text  x="717.07" y="159.5" ></text>
</g>
<g >
<title>runOneSqlLine (695 samples, 57.92%)</title><rect x="39.5" y="293" width="683.4" height="15.0" fill="rgb(240,56,16)" rx="2" ry="2" />
<text  x="42.50" y="303.5" >runOneSqlLine</text>
</g>
<g >
<title>sqlite3LockAndPrepare (3 samples, 0.25%)</title><rect x="709.1" y="245" width="3.0" height="15.0" fill="rgb(239,204,21)" rx="2" ry="2" />
<text  x="712.15" y="255.5" ></text>
</g>
<g >
<title>vfs_read (475 samples, 39.58%)</title><rect x="722.9" y="181" width="467.1" height="15.0" fill="rgb(248,57,31)" rx="2" ry="2" />
<text  x="725.92" y="191.5" >vfs_read</text>
</g>
<g >
<title>sqlite3SrcListLookup (1 samples, 0.08%)</title><rect x="711.1" y="181" width="1.0" height="15.0" fill="rgb(252,157,44)" rx="2" ry="2" />
<text  x="714.12" y="191.5" ></text>
</g>
<g >
<title>sqlite3LocateTable (1 samples, 0.08%)</title><rect x="711.1" y="165" width="1.0" height="15.0" fill="rgb(218,47,18)" rx="2" ry="2" />
<text  x="714.12" y="175.5" ></text>
</g>
<g >
<title>memjrnlWrite (1 samples, 0.08%)</title><rect x="712.1" y="149" width="1.0" height="15.0" fill="rgb(210,121,38)" rx="2" ry="2" />
<text  x="715.10" y="159.5" ></text>
</g>
<g >
<title>_read_r (28 samples, 2.33%)</title><rect x="11.0" y="229" width="27.5" height="15.0" fill="rgb(210,208,18)" rx="2" ry="2" />
<text  x="13.98" y="239.5" >_..</text>
</g>
<g >
<title>local_getline (30 samples, 2.50%)</title><rect x="10.0" y="293" width="29.5" height="15.0" fill="rgb(210,83,54)" rx="2" ry="2" />
<text  x="13.00" y="303.5" >lo..</text>
</g>
<g >
<title>pagerAddPageToRollbackJournal (6 samples, 0.50%)</title><rect x="713.1" y="181" width="5.9" height="15.0" fill="rgb(214,113,28)" rx="2" ry="2" />
<text  x="716.08" y="191.5" ></text>
</g>
<g >
<title>time_block_until (25 samples, 2.08%)</title><rect x="13.9" y="53" width="24.6" height="15.0" fill="rgb(223,20,42)" rx="2" ry="2" />
<text  x="16.93" y="63.5" >t..</text>
</g>
<g >
<title>pagerAddPageToRollbackJournal (1 samples, 0.08%)</title><rect x="712.1" y="165" width="1.0" height="15.0" fill="rgb(219,54,0)" rx="2" ry="2" />
<text  x="715.10" y="175.5" ></text>
</g>
<g >
<title>sys_read (28 samples, 2.33%)</title><rect x="11.0" y="165" width="27.5" height="15.0" fill="rgb(254,157,13)" rx="2" ry="2" />
<text  x="13.98" y="175.5" >s..</text>
</g>
<g >
<title>pager_write (1 samples, 0.08%)</title><rect x="712.1" y="181" width="1.0" height="15.0" fill="rgb(248,164,50)" rx="2" ry="2" />
<text  x="715.10" y="191.5" ></text>
</g>
<g >
<title>sqlite3VdbeMemStringify (1 samples, 0.08%)</title><rect x="721.9" y="213" width="1.0" height="15.0" fill="rgb(206,187,14)" rx="2" ry="2" />
<text  x="724.93" y="223.5" ></text>
</g>
<g >
<title>__sread (28 samples, 2.33%)</title><rect x="11.0" y="245" width="27.5" height="15.0" fill="rgb(207,91,29)" rx="2" ry="2" />
<text  x="13.98" y="255.5" >_..</text>
</g>
<g >
<title>sqlite3_prepare_v2 (3 samples, 0.25%)</title><rect x="709.1" y="261" width="3.0" height="15.0" fill="rgb(238,66,48)" rx="2" ry="2" />
<text  x="712.15" y="271.5" ></text>
</g>
<g >
<title>hypercall_page (679 samples, 56.58%)</title><rect x="39.5" y="69" width="667.7" height="15.0" fill="rgb(230,228,45)" rx="2" ry="2" />
<text  x="42.50" y="79.5" >hypercall_page</text>
</g>
<g >
<title>sqlite3BtreeCommitPhaseTwo.part.509 (1 samples, 0.08%)</title><rect x="720.9" y="213" width="1.0" height="15.0" fill="rgb(229,99,29)" rx="2" ry="2" />
<text  x="723.95" y="223.5" ></text>
</g>
<g >
<title>hv_console_input (407 samples, 33.92%)</title><rect x="772.1" y="149" width="400.2" height="15.0" fill="rgb(249,179,34)" rx="2" ry="2" />
<text  x="775.08" y="159.5" >hv_console_input</text>
</g>
<g >
<title>do_preadv (28 samples, 2.33%)</title><rect x="11.0" y="181" width="27.5" height="15.0" fill="rgb(214,142,19)" rx="2" ry="2" />
<text  x="13.98" y="191.5" >d..</text>
</g>
<g >
<title>exec_prepared_stmt.part.38 (681 samples, 56.75%)</title><rect x="39.5" y="261" width="669.6" height="15.0" fill="rgb(212,171,51)" rx="2" ry="2" />
<text  x="42.50" y="271.5" >exec_prepared_stmt.part.38</text>
</g>
<g >
<title>_fgets_r (28 samples, 2.33%)</title><rect x="11.0" y="277" width="27.5" height="15.0" fill="rgb(214,150,19)" rx="2" ry="2" />
<text  x="13.98" y="287.5" >_..</text>
</g>
<g >
<title>do_meta_command (725 samples, 60.42%)</title><rect x="10.0" y="325" width="712.9" height="15.0" fill="rgb(219,201,46)" rx="2" ry="2" />
<text  x="13.00" y="335.5" >do_meta_command</text>
</g>
<g >
<title>sqlite3Prepare (3 samples, 0.25%)</title><rect x="709.1" y="229" width="3.0" height="15.0" fill="rgb(243,142,45)" rx="2" ry="2" />
<text  x="712.15" y="239.5" ></text>
</g>
<g >
<title>ukplat_lcpu_halt_to (27 samples, 2.25%)</title><rect x="12.0" y="69" width="26.5" height="15.0" fill="rgb(212,217,44)" rx="2" ry="2" />
<text  x="14.97" y="79.5" >u..</text>
</g>
<g >
<title>pthread_mutex_lock (1 samples, 0.08%)</title><rect x="720.9" y="149" width="1.0" height="15.0" fill="rgb(253,113,7)" rx="2" ry="2" />
<text  x="723.95" y="159.5" ></text>
</g>
<g >
<title>__swbuf_r (679 samples, 56.58%)</title><rect x="39.5" y="213" width="667.7" height="15.0" fill="rgb(232,22,13)" rx="2" ry="2" />
<text  x="42.50" y="223.5" >__swbuf_r</text>
</g>
<g >
<title>sqlite3Insert (1 samples, 0.08%)</title><rect x="711.1" y="197" width="1.0" height="15.0" fill="rgb(251,94,41)" rx="2" ry="2" />
<text  x="714.12" y="207.5" ></text>
</g>
<g >
<title>__read_fn (50 samples, 4.17%)</title><rect x="722.9" y="149" width="49.2" height="15.0" fill="rgb(220,205,24)" rx="2" ry="2" />
<text  x="725.92" y="159.5" >__re..</text>
</g>
<g >
<title>memjrnlWrite (6 samples, 0.50%)</title><rect x="713.1" y="165" width="5.9" height="15.0" fill="rgb(205,127,37)" rx="2" ry="2" />
<text  x="716.08" y="175.5" ></text>
</g>
<g >
<title>sqlite3VdbeExec (11 samples, 0.92%)</title><rect x="712.1" y="245" width="10.8" height="15.0" fill="rgb(229,70,21)" rx="2" ry="2" />
<text  x="715.10" y="255.5" ></text>
</g>
<g >
<title>findElementWithHash (1 samples, 0.08%)</title><rect x="711.1" y="149" width="1.0" height="15.0" fill="rgb(206,148,10)" rx="2" ry="2" />
<text  x="714.12" y="159.5" ></text>
</g>
<g >
<title>_write_r (679 samples, 56.58%)</title><rect x="39.5" y="165" width="667.7" height="15.0" fill="rgb(247,113,43)" rx="2" ry="2" />
<text  x="42.50" y="175.5" >_write_r</text>
</g>
<g >
<title>uk_syscall_e_readv (28 samples, 2.33%)</title><rect x="11.0" y="197" width="27.5" height="15.0" fill="rgb(230,87,4)" rx="2" ry="2" />
<text  x="13.98" y="207.5" >u..</text>
</g>
<g >
<title>sqlite3VdbeMemStringify (2 samples, 0.17%)</title><rect x="707.2" y="213" width="1.9" height="15.0" fill="rgb(222,8,19)" rx="2" ry="2" />
<text  x="710.18" y="223.5" ></text>
</g>
<g >
<title>_fflush_r (679 samples, 56.58%)</title><rect x="39.5" y="197" width="667.7" height="15.0" fill="rgb(214,157,16)" rx="2" ry="2" />
<text  x="42.50" y="207.5" >_fflush_r</text>
</g>
<g >
<title>sqlite3_str_vappendf (2 samples, 0.17%)</title><rect x="707.2" y="181" width="1.9" height="15.0" fill="rgb(213,36,47)" rx="2" ry="2" />
<text  x="710.18" y="191.5" ></text>
</g>
<g >
<title>memcpy (1 samples, 0.08%)</title><rect x="719.0" y="213" width="1.0" height="15.0" fill="rgb(254,127,17)" rx="2" ry="2" />
<text  x="721.98" y="223.5" ></text>
</g>
<g >
<title>all (1,200 samples, 100%)</title><rect x="10.0" y="389" width="1180.0" height="15.0" fill="rgb(244,151,43)" rx="2" ry="2" />
<text  x="13.00" y="399.5" ></text>
</g>
<g >
<title>vfs_write (679 samples, 56.58%)</title><rect x="39.5" y="101" width="667.7" height="15.0" fill="rgb(244,227,52)" rx="2" ry="2" />
<text  x="42.50" y="111.5" >vfs_write</text>
</g>
<g >
<title>sqlite3_step (11 samples, 0.92%)</title><rect x="712.1" y="261" width="10.8" height="15.0" fill="rgb(247,132,0)" rx="2" ry="2" />
<text  x="715.10" y="271.5" ></text>
</g>
<g >
<title>uk_syscall_e_readv (475 samples, 39.58%)</title><rect x="722.9" y="229" width="467.1" height="15.0" fill="rgb(232,224,27)" rx="2" ry="2" />
<text  x="725.92" y="239.5" >uk_syscall_e_readv</text>
</g>
<g >
<title>uk_syscall_e_write (679 samples, 56.58%)</title><rect x="39.5" y="149" width="667.7" height="15.0" fill="rgb(233,120,50)" rx="2" ry="2" />
<text  x="42.50" y="159.5" >uk_syscall_e_write</text>
</g>
<g >
<title>sqlite3RunParser (3 samples, 0.25%)</title><rect x="709.1" y="213" width="3.0" height="15.0" fill="rgb(222,91,0)" rx="2" ry="2" />
<text  x="712.15" y="223.5" ></text>
</g>
<g >
<title>__sread (475 samples, 39.58%)</title><rect x="722.9" y="277" width="467.1" height="15.0" fill="rgb(216,44,14)" rx="2" ry="2" />
<text  x="725.92" y="287.5" >__sread</text>
</g>
<g >
<title>hypercall_page (25 samples, 2.08%)</title><rect x="13.9" y="37" width="24.6" height="15.0" fill="rgb(219,215,20)" rx="2" ry="2" />
<text  x="16.93" y="47.5" >h..</text>
</g>
<g >
<title>hypercall_page (1 samples, 0.08%)</title><rect x="11.0" y="85" width="1.0" height="15.0" fill="rgb(217,125,12)" rx="2" ry="2" />
<text  x="13.98" y="95.5" ></text>
</g>
<g >
<title>do_preadv (475 samples, 39.58%)</title><rect x="722.9" y="213" width="467.1" height="15.0" fill="rgb(206,62,38)" rx="2" ry="2" />
<text  x="725.92" y="223.5" >do_preadv</text>
</g>
<g >
<title>stdio_read (475 samples, 39.58%)</title><rect x="722.9" y="165" width="467.1" height="15.0" fill="rgb(229,197,13)" rx="2" ry="2" />
<text  x="725.92" y="175.5" >stdio_read</text>
</g>
<g >
<title>uk_9pdev_request (1 samples, 0.08%)</title><rect x="11.0" y="101" width="1.0" height="15.0" fill="rgb(215,196,26)" rx="2" ry="2" />
<text  x="13.98" y="111.5" ></text>
</g>
<g >
<title>insertCell (6 samples, 0.50%)</title><rect x="713.1" y="213" width="5.9" height="15.0" fill="rgb(225,19,3)" rx="2" ry="2" />
<text  x="716.08" y="223.5" ></text>
</g>
</g>
</svg>
